<?xml version="1.0" encoding="UTF-8"?>
<svg width="67px" height="60px" viewBox="0 0 67 60" version="1.1" xmlns="http://www.w3.org/2000/svg" xmlns:xlink="http://www.w3.org/1999/xlink">
    <!-- Generator: Sketch 41.2 (35397) - http://www.bohemiancoding.com/sketch -->
    <title>Shape</title>
    <desc>Created with Sketch.</desc>
    <defs></defs>
    <g id="Commerces-icon" stroke="none" stroke-width="1" fill="none" fill-rule="evenodd">
        <g id="Artboard" transform="translate(-487.000000, -16.000000)" fill="#B957CD">
            <g id="Shape" transform="translate(487.000000, 16.000000)">
                <path d="M10.1588057,0 C6.26272011,0 3.58215516,1.63797106 2.04008803,3.66383156 C0.49802092,5.68969206 0,7.98325914 0,9.57592339 C0,12.3640819 1.19468004,16.7120267 6.57824303,19.1102123 C11.9289014,21.4946406 17.7927491,22.6210156 22.7740439,29.9768037 C17.8013185,37.3441294 11.9261273,38.4597009 6.57824303,40.843395 C1.19468004,43.2415806 0,47.5906939 0,50.3776839 C0,51.9703475 0.49802092,54.2639154 2.04008803,56.2897758 C3.58215516,58.3156361 6.26272011,59.9536073 10.1588057,59.9536073 C14.2126528,59.9536073 16.9685682,58.066032 18.52733,55.9150657 C20.0860919,53.7640995 20.5674181,51.5301282 20.5674181,50.1278772 C20.5674181,48.0431637 19.8058913,45.4198404 17.9444477,43.7578065 C18.1079665,43.6235757 18.3475905,43.3886148 18.7355023,43.1749242 C18.7417641,43.1715934 18.7708083,43.1783882 18.7771367,43.1749242 C21.0436709,41.9513563 29.0483661,37.0695592 29.8935348,36.5550467 L32.7663118,38.5951347 L50.9605662,51.6683519 L51.0022007,51.6683519 C51.0460334,51.7016195 53.001471,53.1781036 55.8317968,53.999881 C58.6938368,54.8308674 62.6442773,54.9681971 66.1155059,52.1263308 C66.4428455,51.8679655 66.630344,51.4712473 66.6221687,51.0543096 C66.6139935,50.6373719 66.4110875,50.2483087 66.0738714,50.0029739 L41.1764706,31.6421816 L38.9282103,29.9768037 L66.0738714,9.95063344 C66.4110875,9.70529861 66.6139935,9.3162354 66.6221687,8.89929772 C66.630344,8.48236004 66.4428455,8.08564184 66.1155059,7.82727651 C64.3798916,6.40634324 62.523075,5.71817096 60.7446619,5.49574734 C58.9662487,5.27332372 57.2628175,5.53823313 55.8317968,5.95372628 C53.001471,6.77550385 51.0460334,8.25199413 51.0022007,8.28525546 C51.0017091,8.2856281 50.9605662,8.28525546 50.9605662,8.28525546 L29.8935348,23.3985606 C29.0484434,22.8841121 21.0133863,17.9839785 18.7771367,16.7786832 C18.3742645,16.5616058 18.1135982,16.3347533 17.9444477,16.1958009 C19.8058913,14.533767 20.5674181,11.9104436 20.5674181,9.82573009 C20.5664974,8.42482399 20.0862304,6.18924257 18.52733,4.0385416 C16.9684297,1.88784064 14.2126528,0 10.1588057,0 L10.1588057,0 Z M10.1588057,2.66460477 C13.4259602,2.66460477 15.2040083,4.02258582 16.3623387,5.62065069 C17.520669,7.21871556 17.9024016,9.20020426 17.9028133,9.82573009 C17.9028133,11.1480655 17.0726144,13.5221817 16.112532,14.3222506 C15.6292979,14.7247019 15.2267654,15.2481475 15.1133052,15.9043597 C14.9998463,16.5605719 15.2366231,17.2006287 15.5296497,17.6113722 C16.1157082,18.4328591 16.8758666,18.7812056 17.4864688,19.1102123 C19.1797239,20.0228448 25.4373124,23.8427169 27.5203711,25.1055731 L24.6059597,27.1872955 C24.4760351,27.2776593 24.3632478,27.3904465 24.2728841,27.5203711 C18.9233289,20.2986047 12.4070236,18.8105149 7.66073871,16.6954143 C3.17460559,14.697002 2.66460477,11.7519236 2.66460477,9.57592339 C2.66460477,8.5785918 3.06622106,6.72903154 4.16344495,5.28757509 C5.26066884,3.84611864 6.96970717,2.66460477 10.1588057,2.66460477 L10.1588057,2.66460477 Z M9.78409564,4.99613394 C6.99924991,4.99613394 4.69808524,7.41619994 5.03776839,10.2420746 C5.3791854,13.0673457 7.89234096,15.1965741 10.7000535,15.1965741 C13.630855,15.1965741 15.5739367,12.3957481 15.2382085,9.61755784 C14.9025203,6.83969018 12.4458659,4.99613394 9.78409564,4.99613394 L9.78409564,4.99613394 Z M9.78409564,7.66073871 C11.2657858,7.66073871 12.4473165,8.56105924 12.6152382,9.95063344 C12.7831208,11.3398851 11.9127129,12.5319693 10.7000535,12.5319693 C9.36164107,12.5319693 7.86456646,11.2511697 7.70237316,9.90899899 C7.54111062,8.56743177 8.42814555,7.66073871 9.78409564,7.66073871 L9.78409564,7.66073871 Z M59.370725,8.07708321 C59.6967368,8.07596328 60.0370627,8.07917839 60.3699518,8.11871766 C61.1966774,8.21691234 62.0653319,8.52073298 62.9096532,8.95140665 L29.4771903,33.6406352 C29.1707971,33.7258362 28.9049811,33.9178144 28.7277702,34.1818831 C28.1811119,34.5138955 19.4102322,39.8077044 17.4864688,40.843395 C16.8762237,41.1722099 16.115972,41.5211332 15.5296497,42.3422352 C15.2364885,42.7527855 15.0003899,43.3931486 15.1133052,44.0492476 C15.2262178,44.7053466 15.6298055,45.2284365 16.112532,45.6313567 C17.0726144,46.4314256 17.9028133,48.8055418 17.9028133,50.1278772 C17.9028133,50.7533905 17.5204745,52.734824 16.3623387,54.3329566 C15.2042028,55.9310893 13.4259602,57.2890026 10.1588057,57.2890026 C6.96970717,57.2890026 5.26066884,56.1074888 4.16344495,54.6660322 C3.06622106,53.2245756 2.66460477,51.3750162 2.66460477,50.3776839 C2.66460477,48.2031799 3.17460559,45.2566053 7.66073871,43.2581931 C13.0265367,40.8665158 20.6588353,39.175014 26.3129721,29.2273836 L52.5426753,10.4502468 C52.5568584,10.4366771 52.57074,10.4227955 52.5843098,10.4086124 C52.5843098,10.4086124 54.2362861,9.17427193 56.5812169,8.4934277 C57.4605658,8.238111 58.3926898,8.08044314 59.370725,8.07708321 L59.370725,8.07708321 Z M30.6429549,27.8534467 C29.8342993,27.8534467 29.1857491,28.5019969 29.1857491,29.3106525 C29.1857491,30.1193081 29.8342993,30.7678582 30.6429549,30.7678582 C31.4516104,30.7678582 32.1001606,30.1193081 32.1001606,29.3106525 C32.1001606,28.5019969 31.4516104,27.8534467 30.6429549,27.8534467 L30.6429549,27.8534467 Z M36.67995,31.6421816 L39.5943615,33.7655386 L62.9096532,51.0022007 C60.7054376,52.1265333 58.481633,52.0119606 56.5812169,51.4601796 C54.2362861,50.7793358 52.5843098,49.5449949 52.5843098,49.5449949 C52.57074,49.5308118 52.5568584,49.5169303 52.5426753,49.5033605 L34.3067864,36.4301433 L32.1834295,34.9313032 L36.67995,31.6421816 L36.67995,31.6421816 Z M10.7000535,44.7570332 C7.89177021,44.7570332 5.37761821,46.8860791 5.03776839,49.7115327 C4.69625333,52.5376152 6.99894815,54.9574734 9.78409564,54.9574734 C12.4473898,54.9574734 14.902495,53.1123425 15.2382085,50.3360495 C15.5739274,47.5579259 13.6302834,44.7570332 10.7000535,44.7570332 L10.7000535,44.7570332 Z M10.7000535,47.421638 C11.9132841,47.421638 12.783129,48.6136556 12.6152382,50.0029739 C12.4473408,51.3914581 11.2669265,52.2928686 9.78409564,52.2928686 C8.42578272,52.2928686 7.54027793,51.3859677 7.70237316,50.0446083 C7.86346904,48.7052847 9.36221183,47.421638 10.7000535,47.421638 L10.7000535,47.421638 Z"></path>
            </g>
        </g>
    </g>
</svg>