<?xml version="1.0" ?><svg id="Layer_1" style="enable-background:new 0 0 122.9 122.9;" version="1.1" viewBox="0 0 122.9 122.9" xml:space="preserve" xmlns="http://www.w3.org/2000/svg" xmlns:xlink="http://www.w3.org/1999/xlink"><style type="text/css">
	.st0{fill:none;stroke:#E50013;stroke-width:0.2398;stroke-miterlimit:22.9256;}
	.st1{fill:none;stroke:#000000;stroke-width:5.9998;stroke-linecap:round;stroke-linejoin:round;stroke-miterlimit:22.9256;}
	.st2{fill:none;stroke:#000000;stroke-width:5.9998;stroke-miterlimit:22.9256;}
</style><path d="M44.8,31.9h-25v7.4h25V31.9z M107.5,91v-9.3l-25.7-9.5V91H107.5z M15.4,57.2V91h60.4V57.2H15.4z M113.5,79.6V94  c0,3-2.8,3-5,3H13c-2.2,0-3.6-0.8-3.6-3.7V54.6c0-2.2,1.2-3.3,3.3-3.3h16.5v-6H17.4c-2.6,0-3.6-1-3.6-3.7V29.3c0-2.1,1-3.4,3.3-3.4  h30.3c1.9,0,3.4,0.9,3.4,3.4v12.4c0,2.2-0.9,3.6-3.2,3.6H35.3v6h42.9c2,0,3.6,0.9,3.6,3.1v11.5l28.6,10.6  C112,77,113.5,77.6,113.5,79.6z"/></svg>