<?xml version="1.0" encoding="iso-8859-1"?>
<!-- Generator: Adobe Illustrator 17.1.0, SVG Export Plug-In . SVG Version: 6.00 Build 0)  -->
<!DOCTYPE svg PUBLIC "-//W3C//DTD SVG 1.1//EN" "http://www.w3.org/Graphics/SVG/1.1/DTD/svg11.dtd">
<svg version="1.1" id="Capa_1" xmlns="http://www.w3.org/2000/svg" xmlns:xlink="http://www.w3.org/1999/xlink" x="0px" y="0px"
	 viewBox="0 0 422.808 422.808" style="enable-background:new 0 0 422.808 422.808;" xml:space="preserve">
<path d="M369.656,402.618h-11.252v-41.575c0-5.523-4.646-10.425-10.168-10.425h-69.832v-28h23.925
	c5.522,0,10.075-4.078,10.075-9.601v-43.181c0-5.523-4.553-10.218-10.075-10.218h-67.323c-5.522,0-9.602,4.695-9.602,10.218v43.181
	c0,5.523,4.079,9.601,9.602,9.601h23.398v28h-26.727c-5.522,0-10.273,4.902-10.273,10.425v41.575h-11.147
	c-5.523,0-10,4.587-10,10.11s4.477,10.055,10,10.055l159.399,0.026c5.522,0,10-4.572,10-10.095S375.179,402.618,369.656,402.618z
	 M245.404,279.618h47v23h-47V279.618z M241.404,370.618h97v32h-97V370.618z M79.343,150.564c4.824,0,9.072-3.5,9.861-8.416
	c0.875-5.453-2.835-10.583-8.288-11.459c-2.975-0.478-5.861-1.119-8.648-1.921c9.342-8.978,17.576-19.827,24.527-31.068
	c4.23,19.256,12.948,32.116,20.77,40.236c13.183,13.686,30.741,21.223,49.438,21.223s36.254-7.537,49.437-21.223
	c11.371-11.804,24.635-33.626,23.253-70.551c-1.468-39.289-29.995-60.826-59.663-66.379c-0.193-0.046-2.969-0.346-5.942-0.658
	c-3.516-0.369-12.296-0.471-14.739-0.172c-21.173,2.59-42.555,13.25-54.772,32.612c-3.981,6.309-15.657,38.449-19.868,46.148
	c-10.535,19.262-23.781,35.257-37.152,44.286c-2.862,1.933-4.524,5.205-4.397,8.655s2.025,6.592,5.021,8.309
	c8.851,5.072,18.798,8.521,29.565,10.25C78.282,150.522,78.816,150.564,79.343,150.564z M202.036,124.06
	c-9.378,9.736-21.82,15.098-35.033,15.098c-13.213,0-25.655-5.362-35.034-15.098c-8.486-8.809-14.02-20.605-16.406-34.719
	c14.81-0.087,29.371-5.022,41.334-14.256c1.097-0.847,2.165-1.728,3.209-2.638c12.992,12.218,29.608,18.769,46.678,18.769
	c3.822,0,7.665-0.349,11.495-1.013C215.814,103.931,210.346,115.433,202.036,124.06z M219.73,69.396
	c-16.494,4.619-33.958,0.057-46.528-12.096c6.367-9.726,10.795-21.241,13.043-34.04c16.583,5.875,30.374,18.84,33.039,39.7
	C219.498,64.633,219.719,68.972,219.73,69.396z M166.628,19.622c-2.441,14.447-7.848,24.584-13.676,31.615
	c-0.14,0.154-0.273,0.311-0.402,0.472c-2.629,3.099-5.331,5.581-7.875,7.545c-8.785,6.781-19.537,10.283-30.402,10.079
	c0.011-0.402,0.197-4.258,0.367-5.729C117.995,34.693,142.545,20.725,166.628,19.622z M200.676,206.839
	c12.595,5.547,22.707,14.188,28.729,25.125c2.665,4.838,8.746,6.6,13.583,3.936c4.838-2.664,6.601-8.746,3.937-13.583
	c-12.82-23.281-38.74-38.82-69.276-41.974c-3.165-0.327-17.717-0.377-20.432-0.127c-35.261,3.241-71.092,23.501-78.64,64.252
	L55.113,371.733c-0.539,2.92,0.249,5.965,2.148,8.247s4.716,3.638,7.686,3.638H177.39c5.523,0,10-4.477,10-10s-4.477-10-10-10H76.96
	l21.283-115.431c3.575-19.3,16.121-32.487,31.858-40.126l0.003,50.558h-4.073c-4.8,0-8.922,3.468-9.822,8.183l-12.845,67.29
	c-1.036,5.425,2.522,10.677,7.947,11.712c0.633,0.121,1.264,0.187,1.887,0.187c4.704,0,8.896-3.331,9.811-8.122l11.293-59.133
	l56.376-0.001c0,0,0.001,0,0.001,0c0,0,0.001,0,0.001,0c5.523,0,10-4.477,10-10L200.676,206.839z M150.1,201.476
	c5.506-1.067,11.1-1.583,16.602-1.623c4.79,0.033,9.461,0.387,13.974,1.107l0.003,57.657h-30.576L150.1,201.476z"/>
<g>
</g>
<g>
</g>
<g>
</g>
<g>
</g>
<g>
</g>
<g>
</g>
<g>
</g>
<g>
</g>
<g>
</g>
<g>
</g>
<g>
</g>
<g>
</g>
<g>
</g>
<g>
</g>
<g>
</g>
</svg>
