<?xml version="1.0" encoding="UTF-8"?>
<svg width="60px" height="60px" viewBox="0 0 60 60" version="1.1" xmlns="http://www.w3.org/2000/svg" xmlns:xlink="http://www.w3.org/1999/xlink">
    <!-- Generator: Sketch 41.2 (35397) - http://www.bohemiancoding.com/sketch -->
    <title>Shape</title>
    <desc>Created with Sketch.</desc>
    <defs></defs>
    <g id="Bubbles" stroke="none" stroke-width="1" fill="none" fill-rule="evenodd">
        <g id="Shape" fill="#30BEA5">
            <path d="M34.8,0 C33.4883244,0 32.4,1.08832464 32.4,2.4 L32.4,6 C32.4,7.17279204 33.265668,8.16510432 34.3875,8.3625 C33.8962248,9.1603914 33.4011804,10.0614738 32.925,11.1375 C31.9334508,13.3781112 30.9733092,16.1159604 30.225,18.7125 L28.575,17.775 C28.3269811,17.6274299 28.0340903,17.574177 27.75,17.625 C27.5213331,17.6764937 27.3127504,17.7938214 27.15,17.9625 L25.5375,19.5 C23.3924472,17.6557368 20.596884,16.5375 17.55,16.5375 C11.0005542,16.5375 5.61059124,21.695766 5.2875,28.8 L3.4125,28.8 C1.53998592,28.8 0,30.3399864 0,32.2125 L0,36.1875 C0,38.0600136 1.53998592,39.6 3.4125,39.6 L3.6,39.6 L3.6,43.2 C3.6,43.461078 3.6301992,43.4276568 3.6375,43.4625 C3.644796,43.497348 3.63144,43.513284 3.6375,43.5375 C3.6496164,43.585944 3.65865,43.628472 3.675,43.6875 C3.7077,43.805544 3.768606,43.9823424 3.825,44.175 C3.9377892,44.5603152 4.0841286,45.0789312 4.275,45.7125 C4.6567428,46.9796376 5.19200784,48.663408 5.7,50.325 C6.71598432,53.648184 7.725,56.925 7.725,56.925 C7.73993394,57.0150679 7.7650967,57.1031376 7.8,57.1875 C8.12543532,57.7700772 8.45429676,58.3593672 8.925,58.9125 C9.39570324,59.4656328 10.1469188,60 11.0625,60 L48.9375,60 C49.8654972,60 50.7228708,59.544402 51.225,58.95 C51.7271292,58.355598 51.9702516,57.678156 52.2375,57.0375 C52.2518462,57.0006409 52.2643615,56.963095 52.275,56.925 C52.275,56.925 53.2840152,53.648184 54.3,50.325 C54.8079924,48.663408 55.3432572,46.9796376 55.725,45.7125 C55.9158708,45.0789312 56.0622108,44.5603152 56.175,44.175 C56.2314,43.9823424 56.2923,43.80555 56.325,43.6875 C56.341344,43.628472 56.35038,43.585944 56.3625,43.5375 C56.3685,43.513284 56.35518,43.497348 56.3625,43.4625 C56.3698008,43.4276568 56.4,43.461078 56.4,43.2 L56.4,39.6 L56.5875,39.6 C58.4600136,39.6 60,38.0600136 60,36.1875 L60,32.2125 C60,30.3399864 58.4600136,28.8 56.5875,28.8 L52.8,28.8 L52.8,26.175 C52.8,23.470818 51.528696,18.8450532 49.9875,14.5875 C49.216902,12.4587228 48.3947136,10.4432537 47.55,8.925 C47.4372276,8.7223068 47.32662,8.54797572 47.2125,8.3625 C48.334332,8.16510432 49.2,7.17279204 49.2,6 L49.2,2.4 C49.2,1.08832464 48.1116756,0 46.8,0 L34.8,0 L34.8,0 Z M34.8,2.4 L46.8,2.4 L46.8,6 L44.5875,6 L44.2125,6 L37.3875,6 L37.2,6 L34.8,6 L34.8,2.4 L34.8,2.4 Z M37.3125,8.4 L44.2125,8.4 C44.2453188,8.41969164 44.3436252,8.4787668 44.475,8.625 C44.7377496,8.91746604 45.0801324,9.46021428 45.45,10.125 C46.1897364,11.4545713 46.996098,13.3268772 47.7375,15.375 C49.220304,19.4712468 50.4,24.321582 50.4,26.175 L50.4,28.8 L48,28.8 C47.9877756,28.7872274 47.9752726,28.7747244 47.9625,28.7625 L32.3625,19.95 C33.0992496,17.2819152 34.095936,14.381388 35.1,12.1125 C35.6534088,10.8619579 36.2427024,9.79077276 36.7125,9.1125 C36.9473988,8.77336368 37.1466684,8.5473414 37.275,8.4375 C37.3070832,8.41003968 37.2972516,8.40866448 37.3125,8.4 L37.3125,8.4 Z M17.55,18.9375 C19.9236288,18.9375 22.0765212,19.7619768 23.775,21.15 L15.675,28.8 L7.6875,28.8 C7.99243464,22.879902 12.2663676,18.9375 17.55,18.9375 L17.55,18.9375 Z M28.125,20.325 L43.125,28.8 L19.1625,28.8 L28.125,20.325 L28.125,20.325 Z M3.4125,31.2 L56.5875,31.2 C57.1557864,31.2 57.6,31.6442136 57.6,32.2125 L57.6,36.1875 C57.6,36.7557864 57.1557864,37.2 56.5875,37.2 L55.2,37.2 L19.3875,37.2 L15.375,37.2 L4.875,37.2 C4.85000611,37.1992186 4.82499389,37.1992186 4.8,37.2 L3.4125,37.2 C2.84421408,37.2 2.4,36.7557864 2.4,36.1875 L2.4,32.2125 C2.4,31.6442136 2.84421408,31.2 3.4125,31.2 L3.4125,31.2 Z M6,39.6 L14.4,39.6 L14.4,54 C14.4000663,54.6627143 14.9372857,55.1999337 15.6,55.2 L19.2,55.2 C19.8627143,55.1999337 20.3999337,54.6627143 20.4,54 L20.4,39.6 L22.8,39.6 L22.8,54 C22.8000663,54.6627143 23.3372857,55.1999337 24,55.2 L27.6,55.2 C28.2627143,55.1999337 28.7999337,54.6627143 28.8,54 L28.8,39.6 L31.2,39.6 L31.2,54 C31.2000663,54.6627143 31.7372857,55.1999337 32.4,55.2 L36,55.2 C36.6627143,55.1999337 37.1999337,54.6627143 37.2,54 L37.2,39.6 L39.6,39.6 L39.6,54 C39.6000663,54.6627143 40.1372857,55.1999337 40.8,55.2 L44.4,55.2 C45.0627143,55.1999337 45.5999337,54.6627143 45.6,54 L45.6,39.6 L54,39.6 L54,43.05 C53.973204,43.146756 53.942172,43.313214 53.8875,43.5 C53.778144,43.873572 53.5899408,44.4070188 53.4,45.0375 C53.0201172,46.2984624 52.5200076,47.952492 52.0125,49.6125 C51.0148236,52.8758004 50.0588028,56.0277456 50.025,56.1375 C50.024412,56.13942 49.9875,56.25 49.9875,56.25 C49.759914,56.78031 49.5436212,57.1901892 49.3875,57.375 C49.2170292,57.576798 49.2299028,57.6 48.9375,57.6 L11.0625,57.6 C10.9736808,57.6 10.9838964,57.59772 10.7625,57.3375 C10.5597856,57.0992868 10.2724828,56.6291304 9.975,56.1 C9.93131544,55.9581588 8.97993012,52.8586404 7.9875,49.6125 C7.47999216,47.952492 6.9798822,46.2984624 6.6,45.0375 C6.41005884,44.4070188 6.22185156,43.873572 6.1125,43.5 C6.05782416,43.313214 6.02680152,43.1467548 6,43.05 L6,39.6 L6,39.6 Z M16.8,39.6 L18,39.6 L18,52.8 L16.8,52.8 L16.8,39.6 L16.8,39.6 Z M25.2,39.6 L26.4,39.6 L26.4,52.8 L25.2,52.8 L25.2,39.6 L25.2,39.6 Z M33.6,39.6 L34.8,39.6 L34.8,52.8 L33.6,52.8 L33.6,39.6 L33.6,39.6 Z M42,39.6 L43.2,39.6 L43.2,52.8 L42,52.8 L42,39.6 L42,39.6 Z"></path>
        </g>
    </g>
</svg>