<?xml version="1.0" encoding="UTF-8"?>
<svg width="79px" height="60px" viewBox="0 0 79 60" version="1.1" xmlns="http://www.w3.org/2000/svg" xmlns:xlink="http://www.w3.org/1999/xlink">
    <!-- Generator: Sketch 41.2 (35397) - http://www.bohemiancoding.com/sketch -->
    <title>Shape</title>
    <desc>Created with Sketch.</desc>
    <defs></defs>
    <g id="Commerces-icon" stroke="none" stroke-width="1" fill="none" fill-rule="evenodd">
        <g id="Artboard" transform="translate(-299.000000, -16.000000)" fill="#EEB63E">
            <g id="Shape" transform="translate(299.000000, 16.000000)">
                <path d="M22.0073607,0 C11.7608755,0 3.48370767,8.14791878 3.19303225,18.3230928 L0.294741438,22.3512258 C-0.193293022,23.04631 -0.0410373504,24.0033457 0.63860645,24.512663 C1.42956415,25.1058808 2.27279053,25.5708649 3.14390868,25.9372466 L3.14390868,32.3233111 C1.26731933,33.4110045 0,35.4009556 0,37.7269041 C0,40.0528526 1.26731933,42.0428038 3.14390868,43.1304972 L3.14390868,51.8744932 C3.14390868,56.1902231 6.68795126,59.7342649 11.0036804,59.7342649 L67.5940366,59.7342649 C71.9097665,59.7342649 75.4538082,56.1902231 75.4538082,51.8744932 L75.4538082,43.1304972 C77.3303979,42.0428038 78.5977169,40.0528526 78.5977169,37.7269041 C78.5977169,35.4009556 77.3303979,33.4110045 75.4538082,32.3233111 L75.4538082,26.0846173 C76.4536561,25.7027173 77.4061174,25.1853069 78.3029755,24.512663 C78.636293,24.2593927 78.8548324,23.8836431 78.9101594,23.468691 C78.9654863,23.0537388 78.8530311,22.6338566 78.5977169,22.3021022 L75.4046847,18.2739692 C75.0884169,8.12198782 66.8201697,0 56.5903562,0 L22.0073607,0 L22.0073607,0 Z M22.0073607,3.14390868 L56.5903562,3.14390868 C64.8072775,3.14390868 71.4355833,9.29461231 72.2116524,17.2914977 L6.3860645,17.2914977 C7.16213333,9.29461231 13.7904393,3.14390868 22.0073607,3.14390868 L22.0073607,3.14390868 Z M27.5092009,4.71586302 C26.2069515,4.71586302 25.1512694,5.77154495 25.1512694,7.07379452 C25.1512694,8.37604394 26.2069515,9.43172603 27.5092009,9.43172603 C28.8114503,9.43172603 29.8671324,8.37604394 29.8671324,7.07379452 C29.8671324,5.77154495 28.8114503,4.71586302 27.5092009,4.71586302 L27.5092009,4.71586302 Z M19.6494292,6.28781735 C18.3471798,6.28781735 17.2914977,7.34349944 17.2914977,8.64574886 C17.2914977,9.94799828 18.3471798,11.0036804 19.6494292,11.0036804 C20.9516786,11.0036804 22.0073607,9.94799828 22.0073607,8.64574886 C22.0073607,7.34349944 20.9516786,6.28781735 19.6494292,6.28781735 L19.6494292,6.28781735 Z M24.3652922,11.0036804 C23.0630428,11.0036804 22.0073607,12.0593625 22.0073607,13.3616119 C22.0073607,14.6638613 23.0630428,15.7195434 24.3652922,15.7195434 C25.6675417,15.7195434 26.7232238,14.6638613 26.7232238,13.3616119 C26.7232238,12.0593625 25.6675417,11.0036804 24.3652922,11.0036804 L24.3652922,11.0036804 Z M5.55096376,20.4354064 L73.0958767,20.4354064 L74.9625725,22.7933379 C71.9768087,24.2950416 68.5097817,24.0941914 65.7273408,22.0073607 C65.2247307,21.6357108 64.5496902,21.597137 64.0080157,21.9091136 L61.5027135,23.3336972 C61.48634,23.3334414 61.4699634,23.3334414 61.4535899,23.3336972 C58.4622913,25.1012828 55.0257319,25.0715949 52.2183582,23.3336972 C52.2019847,23.3334414 52.1856081,23.3334414 52.1692346,23.3336972 L49.6639324,21.9091136 C49.2113145,21.649097 48.6591536,21.6306917 48.1902252,21.85999 L43.5234857,24.2179215 L43.4743622,24.2179215 C40.9370534,25.4038636 38.0045773,25.4037111 35.4672198,24.2179215 L35.4180962,24.2179215 L30.7513567,21.85999 C30.2824284,21.6306917 29.7302674,21.649097 29.2776496,21.9091136 L26.7232238,23.3336972 C23.7319251,25.1012828 20.2953657,25.0715949 17.487992,23.3336972 C17.4716185,23.3334414 17.455242,23.3334414 17.4388684,23.3336972 L14.9335662,21.9091136 C14.3918917,21.597137 13.7168513,21.6357108 13.2142412,22.0073607 C10.406833,24.1129165 6.88376788,24.2918836 3.88076227,22.7442143 L5.55096376,20.4354064 L5.55096376,20.4354064 Z M14.0984655,25.0038987 L15.8669141,25.9863702 L15.8177905,26.0354937 C19.6126251,28.3846773 24.3698776,28.3549894 28.2951781,26.0354937 L30.0636267,25.0530223 L34.0426361,27.0179652 C34.0586468,27.0346996 34.0750254,27.0510781 34.0917597,27.0670888 C37.5027356,28.6828142 41.4388464,28.6828142 44.8498222,27.0670888 C44.8665566,27.0510781 44.8829351,27.0346996 44.8989458,27.0179652 L48.8779552,25.0530223 L50.5972803,26.0354937 L50.6464038,26.0354937 C54.4346818,28.360202 59.1138569,28.3469457 63.0255443,26.0354937 L64.7939929,25.0038987 C67.0954472,26.4233467 69.7365757,26.9996299 72.3098996,26.7723473 L72.3098996,31.4390868 L6.28781735,31.4390868 L6.28781735,26.7723473 C8.95396053,27.0859868 11.6972329,26.4815578 14.0984655,25.0038987 L14.0984655,25.0038987 Z M6.28781735,34.5829954 L72.3098996,34.5829954 C74.1808333,34.5829954 75.4538082,35.8559704 75.4538082,37.7269041 C75.4538082,39.5978379 74.1808333,40.8708128 72.3098996,40.8708128 L6.28781735,40.8708128 C4.41688343,40.8708128 3.14390868,39.5978379 3.14390868,37.7269041 C3.14390868,35.8559704 4.41688343,34.5829954 6.28781735,34.5829954 L6.28781735,34.5829954 Z M6.28781735,44.0147215 L72.3098996,44.0147215 L72.3098996,51.8744932 C72.3098996,54.4753624 70.1949057,56.5903562 67.5940366,56.5903562 L11.0036804,56.5903562 C8.40281039,56.5903562 6.28781735,54.4753624 6.28781735,51.8744932 L6.28781735,44.0147215 L6.28781735,44.0147215 Z"></path>
            </g>
        </g>
    </g>
</svg>