<?xml version="1.0" ?><svg enable-background="new 0 0 400 400" id="Layer_1" version="1.1" viewBox="0 0 400 400" xml:space="preserve" xmlns="http://www.w3.org/2000/svg" xmlns:xlink="http://www.w3.org/1999/xlink"><g><path d="M129.804,222.342c1.979,1.055,3.745,2.48,5.185,4.214c0.355,0.428,0.692,0.877,1.011,1.346   c0.279-0.339,0.587-0.679,0.928-1.017c1.681-1.667,3.737-3.002,5.945-3.862c7.756-3.02,17.036,0.059,21.292,6.744   c0.012-0.012,0.025-0.023,0.038-0.036c4.759-4.48,11.543-5.916,17.705-3.745c3.077,1.083,5.728,2.964,7.729,5.438l12.105-34.364   c0.918-2.609,2.465-4.988,4.471-6.877c4.761-4.481,11.545-5.917,17.707-3.746c9.043,3.186,13.808,13.135,10.622,22.178   l-25.783,73.191l16.146-10.704c7.309-5.971,18.125-5.001,24.254,2.232c4.081,4.809,5.063,11.212,3.185,16.8h52.36V44.174H129.804   V222.342z M217.504,175.2c-14.888,0-27,12.112-27,27c0,1.764,0.171,3.527,0.508,5.242c0.267,1.354-0.616,2.669-1.971,2.936   c-1.349,0.266-2.669-0.616-2.936-1.971c-0.399-2.031-0.602-4.119-0.602-6.207c0-17.645,14.355-32,32-32s32,14.355,32,32   c0,7.892-2.897,15.472-8.159,21.345c-0.494,0.551-1.177,0.832-1.863,0.832c-0.594,0-1.19-0.21-1.667-0.638   c-1.028-0.921-1.115-2.502-0.194-3.53c4.439-4.955,6.883-11.351,6.883-18.009C244.504,187.313,232.391,175.2,217.504,175.2z    M140.711,57.654c0-1.381,1.119-2.5,2.5-2.5h148.086c1.381,0,2.5,1.119,2.5,2.5v198.931c0,1.381-1.119,2.5-2.5,2.5h-61.543   c-1.381,0-2.5-1.119-2.5-2.5s1.119-2.5,2.5-2.5h59.043V60.154H145.711v151.297c0,1.381-1.119,2.5-2.5,2.5s-2.5-1.119-2.5-2.5   V57.654z" fill="none"/><path d="M241.532,279.802c-2.635-3.109-7.304-3.499-10.408-0.867l-0.47,0.353l-16.36,10.847h0.123l-5.435,3.574   c-0.693,0.455-1.437,0.784-2.202,0.989c-2.433,0.729-5.108,0.251-7.163-1.419c-2.638-2.142-3.587-5.686-2.383-8.854l27.876-79.131   c1.354-3.842-0.671-8.069-4.514-9.423c-2.617-0.922-5.503-0.312-7.528,1.594c-0.86,0.811-1.498,1.792-1.894,2.918l-17.551,49.821   c-0.521,1.539-1.581,2.768-2.994,3.467c-1.394,0.691-3.041,0.789-4.516,0.268c-1.484-0.522-2.715-1.64-3.375-3.066   c-0.659-1.423-0.718-3.027-0.17-4.525l0.531-1.506c0.656-1.861,0.547-3.867-0.305-5.646s-2.347-3.121-4.208-3.777   c-2.618-0.921-5.503-0.312-7.528,1.594c-0.86,0.81-1.499,1.792-1.896,2.92l-0.426,1.208c-1.032,2.935-4.116,4.681-7.164,4.062   c-3.048-0.618-5.203-3.426-5.012-6.532c0.049-0.75-0.001-1.853-0.515-2.956c-1.41-3.029-6.136-4.701-9.542-3.374   c-0.942,0.367-1.818,0.936-2.533,1.645c-0.513,0.509-0.841,1.137-1.424,2.295c-2.338,4.646-5.841,4.982-7.721,4.762   c-4.576-0.526-5.9-4.638-6.335-5.99c-0.061-0.19-0.114-0.381-0.188-0.552c-0.28-0.562-0.625-1.097-1.006-1.557   c-0.845-1.017-1.956-1.79-3.212-2.232h0c-0.804-0.283-1.634-0.424-2.461-0.424c-1.089,0-2.173,0.244-3.185,0.729   c-1.779,0.852-3.121,2.347-3.776,4.208l-14.077,39.96c-1.863,5.568-5.547,20.45,1.007,36.75   c1.522,3.785,7.564,16.802,21.411,25.371c12.013,7.434,26.218,9.801,40.005,6.67c4.823-1.088,9.462-2.843,13.796-5.217l0.096-0.051   c0.192-0.1,0.379-0.207,0.567-0.313l0.271-0.153c3.174-1.816,6.225-4.02,9.033-6.529l0.302-0.25   c1.386-1.055,29.104-22.586,29.383-22.803l24.298-18.515C243.784,287.491,244.14,282.877,241.532,279.802z" fill="none"/><path d="M143.211,213.951c1.381,0,2.5-1.119,2.5-2.5V60.154h143.086v193.931h-59.043c-1.381,0-2.5,1.119-2.5,2.5   s1.119,2.5,2.5,2.5h61.543c1.381,0,2.5-1.119,2.5-2.5V57.654c0-1.381-1.119-2.5-2.5-2.5H143.211c-1.381,0-2.5,1.119-2.5,2.5   v153.797C140.711,212.832,141.83,213.951,143.211,213.951z" fill="#333333"/><path d="M309.703,34.174H124.804c-2.761,0-5,2.239-5,5v181.225c-1.948,0.207-3.869,0.727-5.688,1.599   c-4.188,2.006-7.345,5.524-8.888,9.905l-14.103,40.034c-0.753,2.25-1.745,5.744-2.436,10.123c-0.138,0.205-0.258,0.427-0.332,0.677   c-7.721,25.894-0.547,52.959,18.277,68.953c14.135,12.01,30.584,14.138,40.457,14.137c2.124,0,3.945-0.099,5.371-0.218   c1.376-0.116,2.398-1.325,2.282-2.7c-0.116-1.377-1.337-2.401-2.7-2.282c-7.434,0.627-26.425,0.632-42.172-12.747   c-10.716-9.105-17.308-22.157-19.084-36.47c0.448,1.407,0.95,2.826,1.524,4.256c2.319,5.767,9.438,20.25,25.427,30.144   c10.154,6.283,21.628,9.518,33.298,9.518c4.718,0,9.469-0.529,14.177-1.599c5.708-1.288,11.208-3.366,16.348-6.175   c0.283-0.148,0.558-0.304,0.835-0.46l0.27-0.152c3.761-2.152,7.334-4.724,10.622-7.645c2.626-2.02,28.185-21.873,29.264-22.711   l21.588-16.45h65.562c2.761,0,5-2.239,5-5V39.174C314.703,36.412,312.464,34.174,309.703,34.174z M216.455,308.658   c-0.28,0.217-27.998,21.748-29.383,22.803l-0.302,0.25c-2.808,2.509-5.859,4.712-9.033,6.529l-0.271,0.153   c-0.188,0.106-0.375,0.213-0.567,0.313l-0.096,0.051c-4.334,2.374-8.974,4.129-13.796,5.217   c-13.787,3.131-27.993,0.763-40.005-6.67c-13.847-8.569-19.889-21.585-21.411-25.371c-6.554-16.3-2.87-31.182-1.007-36.75   l14.077-39.96c0.656-1.862,1.997-3.356,3.776-4.208c1.011-0.484,2.095-0.729,3.185-0.729c0.827,0,1.658,0.141,2.461,0.424h0   c1.256,0.443,2.368,1.215,3.212,2.232c0.382,0.46,0.726,0.996,1.006,1.557c0.073,0.17,0.126,0.362,0.188,0.552   c0.435,1.352,1.76,5.464,6.335,5.99c1.88,0.221,5.383-0.115,7.721-4.762c0.583-1.158,0.911-1.787,1.424-2.295   c0.715-0.709,1.591-1.278,2.533-1.645c3.407-1.327,8.133,0.345,9.542,3.374c0.514,1.103,0.564,2.206,0.515,2.956   c-0.191,3.106,1.964,5.915,5.012,6.532c3.048,0.619,6.132-1.127,7.164-4.062l0.426-1.208c0.397-1.127,1.035-2.11,1.896-2.92   c2.024-1.906,4.91-2.516,7.528-1.594c1.861,0.656,3.355,1.997,4.208,3.777s0.961,3.785,0.305,5.646l-0.531,1.506   c-0.548,1.498-0.488,3.102,0.17,4.525c0.66,1.426,1.891,2.544,3.375,3.066c1.475,0.521,3.122,0.423,4.516-0.268   c1.413-0.7,2.474-1.929,2.994-3.467l17.551-49.821c0.396-1.126,1.034-2.108,1.894-2.918c2.025-1.906,4.912-2.516,7.528-1.594   c3.842,1.354,5.867,5.581,4.514,9.423l-27.876,79.131c-1.204,3.168-0.255,6.712,2.383,8.854c2.055,1.669,4.73,2.148,7.163,1.419   c0.766-0.205,1.51-0.533,2.202-0.989l5.435-3.574h-0.123l16.36-10.847l0.47-0.353c3.104-2.631,7.772-2.242,10.408,0.867   c2.609,3.075,2.253,7.689-0.778,10.341L216.455,308.658z M304.703,290.135h-52.36c1.878-5.588,0.895-11.991-3.185-16.8   c-6.13-7.233-16.945-8.203-24.254-2.232l-16.146,10.704l25.783-73.191c3.186-9.043-1.579-18.992-10.622-22.178   c-6.162-2.171-12.945-0.736-17.707,3.746c-2.006,1.89-3.553,4.268-4.471,6.877l-12.105,34.364   c-2.001-2.475-4.652-4.355-7.729-5.438c-6.162-2.171-12.946-0.736-17.705,3.745c-0.013,0.012-0.025,0.024-0.038,0.036   c-4.256-6.686-13.536-9.764-21.292-6.744c-2.208,0.86-4.264,2.196-5.945,3.862c-0.341,0.338-0.648,0.678-0.928,1.017   c-0.318-0.469-0.656-0.918-1.011-1.346c-1.44-1.734-3.206-3.159-5.185-4.214V44.174h174.898V290.135z" fill="#333333"/><path d="M244.504,202.2c0,6.659-2.444,13.054-6.883,18.009c-0.921,1.028-0.834,2.609,0.194,3.53   c0.477,0.427,1.073,0.638,1.667,0.638c0.686,0,1.369-0.281,1.863-0.832c5.261-5.873,8.159-13.454,8.159-21.345   c0-17.645-14.355-32-32-32s-32,14.355-32,32c0,2.087,0.203,4.176,0.602,6.207c0.267,1.355,1.587,2.237,2.936,1.971   c1.355-0.267,2.237-1.581,1.971-2.936c-0.337-1.714-0.508-3.478-0.508-5.242c0-14.888,12.112-27,27-27   S244.504,187.313,244.504,202.2z" fill="#333333"/></g></svg>