<?xml version="1.0" encoding="UTF-8"?>
<svg width="66px" height="60px" viewBox="0 0 66 60" version="1.1" xmlns="http://www.w3.org/2000/svg" xmlns:xlink="http://www.w3.org/1999/xlink">
    <!-- Generator: Sketch 41.2 (35397) - http://www.bohemiancoding.com/sketch -->
    <title>shirt copy</title>
    <desc>Created with Sketch.</desc>
    <defs></defs>
    <g id="Bubbles" stroke="none" stroke-width="1" fill="none" fill-rule="evenodd">
        <g id="shirt-copy" fill="#F44F60">
            <g id="Layer_1">
                <path d="M65.4153924,24.1711538 L52.9519813,3.52487179 C51.7594758,1.54884615 49.0202998,0.000897435898 46.7162409,0.000897435898 L19.0498583,0.000897435898 C16.7488735,0.000897435898 14.0014998,1.5425641 12.7949046,3.51076923 L0.170229833,24.1066667 C0.00922238372,24.3691026 -0.0399636628,24.685 0.0329187863,24.9839744 C0.106057413,25.2829487 0.295500545,25.5405128 0.558978924,25.6991026 L11.4280705,32.2358974 C11.6903961,32.3933333 12.003829,32.4405128 12.3007386,32.3664103 C12.5973919,32.2923077 12.8524164,32.1034615 13.0099655,31.8410256 L14.4387945,29.4608974 L14.4387945,58.8452564 C14.4387945,59.4824359 14.9549918,59.9991026 15.5915925,59.9991026 L50.1745067,59.9991026 C50.8111074,59.9991026 51.3273047,59.4824359 51.3273047,58.8452564 L51.3273047,29.8261538 L52.571558,31.8987179 C52.8992088,32.4448718 53.6072829,32.6215385 54.153581,32.2934615 L65.0226726,25.7566667 C65.2849982,25.5987179 65.474057,25.3428205 65.5478361,25.0453846 C65.6211028,24.7479487 65.5735819,24.4333333 65.4153924,24.1711538 L65.4153924,24.1711538 Z M40.8687373,2.30846154 C40.3075809,6.21717949 36.9410265,9.23128205 32.8830496,9.23128205 C28.8250727,9.23128205 25.4585184,6.21717949 24.8973619,2.30846154 L40.8687373,2.30846154 L40.8687373,2.30846154 Z M11.6275045,29.6637179 L2.74365916,24.3208974 L3.5690625,22.974359 L12.3467224,28.4653846 L11.6275045,29.6637179 L11.6275045,29.6637179 Z M49.0217088,57.6915385 L16.7443904,57.6915385 L16.7443904,55.3839744 L49.0218368,55.3839744 L49.0218368,57.6915385 L49.0217088,57.6915385 Z M52.0722684,26.5869231 L51.1625827,25.0715385 C50.8960302,24.6273077 50.3675363,24.4153846 49.8663254,24.5539744 C49.367292,24.6925641 49.0217088,25.1473077 49.0217088,25.6657692 L49.0217088,53.0762821 L16.7443904,53.0762821 L16.7443904,25.3005128 C16.7443904,24.7820513 16.3988072,24.3273077 15.8997738,24.1887179 C15.3990752,24.0497436 14.8703252,24.2623077 14.6035165,24.7062821 L13.5344886,26.4871795 L4.77488917,21.0074359 L14.7600409,4.7175641 C15.5468895,3.43435897 17.551349,2.30858974 19.0499864,2.30858974 L22.5738336,2.30858974 C23.1493359,7.49333333 27.5521275,11.5391026 32.8831777,11.5391026 C38.2142278,11.5391026 42.6170194,7.49333333 43.1925218,2.30858974 L46.716369,2.30858974 C48.2387028,2.30858974 50.1903897,3.41192308 50.9786473,4.71820513 L60.8612,21.0889744 L52.0722684,26.5869231 L52.0722684,26.5869231 Z M53.9538908,29.7212821 L53.2599064,28.5651282 L62.0535774,23.0641026 L62.8445249,24.3744872 L53.9538908,29.7212821 L53.9538908,29.7212821 Z" id="Shape"></path>
            </g>
        </g>
    </g>
</svg>