<?xml version="1.0" ?><!DOCTYPE svg  PUBLIC '-//W3C//DTD SVG 1.1//EN'  'http://www.w3.org/Graphics/SVG/1.1/DTD/svg11.dtd'><svg enable-background="new 0 0 512 512" height="512px" id="Calque_1" version="1.1" viewBox="0 0 512 512" width="512px" xml:space="preserve" xmlns="http://www.w3.org/2000/svg" xmlns:xlink="http://www.w3.org/1999/xlink"><path d="  M248.481,114.41c4.136-8.379,10.904-8.379,15.04,0l32.747,66.354c4.136,8.38,15.086,16.336,24.334,17.68l73.227,10.641  c9.249,1.344,11.34,7.781,4.647,14.303l-52.986,51.649c-6.692,6.523-10.875,19.395-9.296,28.607l12.508,72.931  c1.58,9.211-3.895,13.188-12.167,8.841l-65.494-34.434c-8.272-4.348-21.808-4.348-30.08,0l-65.496,34.434  c-8.272,4.348-13.748,0.37-12.167-8.841l12.508-72.931c1.58-9.212-2.603-22.084-9.295-28.607l-52.985-51.649  c-6.693-6.522-4.602-12.959,4.647-14.303l73.226-10.641c9.248-1.344,20.198-9.3,24.334-17.68L248.481,114.41z" fill="none" stroke="#000000" stroke-linecap="round" stroke-linejoin="round" stroke-miterlimit="10" stroke-width="7"/><g><circle cx="256.001" cy="256" fill="none" r="218.662" stroke="#010101" stroke-dasharray="32.7131,20.4457,1.0223,0,3.0669,32.7131" stroke-linecap="round" stroke-linejoin="round" stroke-width="7"/></g><circle cx="256.001" cy="256" fill="none" r="44.5" stroke="#000000" stroke-dasharray="32.713,20.4457,1.0223,0,3.0669,32.7131" stroke-linecap="round" stroke-linejoin="round" stroke-miterlimit="10" stroke-width="7"/></svg>